<?xml version="1.0" encoding="utf-8"?>
<!-- Generator: Adobe Illustrator 22.0.1, SVG Export Plug-In . SVG Version: 6.00 Build 0)  -->
<svg version="1.1" id="Layer_1" xmlns="http://www.w3.org/2000/svg" xmlns:xlink="http://www.w3.org/1999/xlink" x="0px" y="0px"
	 viewBox="0 0 31 32" style="enable-background:new 0 0 31 32;" xml:space="preserve">
<style type="text/css">
	.st0{fill:#FFFFFF;}
</style>
<g>
</g>
<g>
	<path class="st0" d="M26.6,4.5c-2.6-2.6-6.1-4.1-9.8-4.1c-0.6,0-1.1,0.5-1.1,1.1c0,0.6,0.5,1.1,1.1,1.1c3.1,0,6.1,1.2,8.3,3.4
		c2.2,2.2,3.4,5.2,3.4,8.3c0,0.6,0.5,1.1,1.1,1.1c0.6,0,1.1-0.5,1.1-1.1C30.6,10.6,29.2,7.1,26.6,4.5z"/>
	<path class="st0" d="M22,14.4c0,0.6,0.5,1.1,1.1,1.1c0.6,0,1.1-0.5,1.1-1.1c0-4.1-3.4-7.5-7.5-7.5c-0.6,0-1.1,0.5-1.1,1.1
		c0,0.6,0.5,1.1,1.1,1.1C19.6,9.1,22,11.4,22,14.4z"/>
	<path class="st0" d="M19.6,20c-1.7-0.1-2.5,1.2-2.9,1.8c-0.3,0.5-0.2,1.2,0.3,1.5c0.5,0.3,1.2,0.2,1.5-0.3c0.5-0.7,0.7-0.8,1-0.8
		c1,0.1,4.7,2.9,5.1,3.7c0.1,0.3,0.1,0.5,0,0.8c-0.4,1.2-1,2-1.9,2.4c-0.8,0.4-1.8,0.3-2.8-0.1c-3.9-1.6-7.4-3.8-10.2-6.7
		c0,0,0,0,0,0c-2.8-2.8-5-6.3-6.6-10.2c-0.4-1.1-0.5-2-0.1-2.8C3.2,8.5,4,7.8,5.2,7.4c0.3-0.1,0.6-0.1,0.8,0
		c0.9,0.4,3.6,4.1,3.7,5.1c0,0.3-0.1,0.5-0.8,1c-0.5,0.3-0.6,1-0.3,1.5c0.3,0.5,1,0.6,1.5,0.3c0.6-0.4,1.9-1.3,1.8-3
		c-0.1-1.8-3.5-6.4-5.2-7c-0.7-0.3-1.5-0.3-2.3,0C2.7,5.9,1.5,7,0.8,8.4c-0.6,1.4-0.6,3,0.1,4.6C2.6,17.2,5,20.9,8,23.9c0,0,0,0,0,0
		c3.1,3,6.7,5.4,10.9,7.1c0.8,0.3,1.7,0.5,2.5,0.5c0.7,0,1.5-0.2,2.1-0.5c1.4-0.6,2.5-1.9,3.1-3.7c0.3-0.8,0.3-1.5,0-2.3
		C26,23.5,21.3,20.1,19.6,20z"/>
</g>
</svg>
