<?xml version="1.0" encoding="utf-8"?>
<!-- Generator: Adobe Illustrator 22.0.1, SVG Export Plug-In . SVG Version: 6.00 Build 0)  -->
<svg version="1.1" id="Layer_1" xmlns="http://www.w3.org/2000/svg" xmlns:xlink="http://www.w3.org/1999/xlink" x="0px" y="0px"
	 viewBox="0 0 32.9 40" style="enable-background:new 0 0 32.9 40;" xml:space="preserve">
<style type="text/css">
	.st0{fill:#FFFFFF;}
</style>
<g>
	<g>
		<path class="st0" d="M29.4,0.6h-26c-1.6,0-3,1.3-3,3v32.8c0,1.6,1.3,3,3,3h26c1.6,0,3-1.3,3-3V3.6C32.4,2,31.1,0.6,29.4,0.6
			L29.4,0.6z M30.4,36.4c0,0.5-0.4,1-1,1h-26c-0.5,0-1-0.4-1-1V3.6c0-0.5,0.4-1,1-1h26c0.5,0,1,0.4,1,1V36.4z"/>
	</g>
	<path class="st0" d="M5.3,13L5.3,13c0,0.6,0.5,1,1,1h20.2c0.6,0,1-0.5,1-1l0,0c0-0.6-0.5-1-1-1H6.4C5.8,12,5.3,12.4,5.3,13z"/>
	<path class="st0" d="M8.1,7.3L8.1,7.3c0,0.6,0.5,1,1,1h14.5c0.6,0,1-0.5,1-1l0,0c0-0.6-0.5-1-1-1H9.2C8.6,6.3,8.1,6.8,8.1,7.3z"/>
	<path class="st0" d="M5.3,18.7L5.3,18.7c0,0.6,0.5,1,1,1h20.2c0.6,0,1-0.5,1-1l0,0c0-0.6-0.5-1-1-1H6.4C5.8,17.6,5.3,18.1,5.3,18.7
		z"/>
	<path class="st0" d="M5.3,24.3L5.3,24.3c0,0.6,0.5,1,1,1h20.2c0.6,0,1-0.5,1-1l0,0c0-0.6-0.5-1-1-1H6.4C5.8,23.3,5.3,23.8,5.3,24.3
		z"/>
	<path class="st0" d="M5.3,30L5.3,30c0,0.6,0.5,1,1,1h14.5c0.6,0,1-0.5,1-1l0,0c0-0.6-0.5-1-1-1H6.4C5.8,29,5.3,29.4,5.3,30z"/>
</g>
</svg>
