<?xml version="1.0" encoding="utf-8"?>
<!-- Generator: Adobe Illustrator 22.0.1, SVG Export Plug-In . SVG Version: 6.00 Build 0)  -->
<svg version="1.1" id="Layer_1" xmlns="http://www.w3.org/2000/svg" xmlns:xlink="http://www.w3.org/1999/xlink" x="0px" y="0px"
	 viewBox="0 0 32.9 23.1" style="enable-background:new 0 0 32.9 23.1;" xml:space="preserve">
<style type="text/css">
	.st0{fill:#FFFFFF;}
</style>
<g>
	<path class="st0" d="M26.8,4.9L16.4,14L6.1,4.9C5.7,4.5,5,4.6,4.7,5C4.3,5.4,4.4,6,4.8,6.4l11,9.7c0.2,0.2,0.4,0.2,0.7,0.2
		c0.2,0,0.5-0.1,0.7-0.2l11-9.7c0.4-0.4,0.5-1,0.1-1.4C27.8,4.6,27.2,4.5,26.8,4.9L26.8,4.9z M26.8,4.9"/>
	<path class="st0" d="M29.4,0.7h-26c-1.6,0-3,1.3-3,3v15.8c0,1.6,1.3,3,3,3h26c1.6,0,3-1.3,3-3V3.7C32.4,2,31.1,0.7,29.4,0.7
		L29.4,0.7z M30.4,19.5c0,0.5-0.4,1-1,1h-26c-0.5,0-1-0.4-1-1V3.7c0-0.5,0.4-1,1-1h26c0.5,0,1,0.4,1,1V19.5z M30.4,19.5"/>
</g>
</svg>
