<?xml version="1.0" encoding="utf-8"?>
<!-- Generator: Adobe Illustrator 22.0.1, SVG Export Plug-In . SVG Version: 6.00 Build 0)  -->
<svg version="1.1" id="Layer_1" xmlns="http://www.w3.org/2000/svg" xmlns:xlink="http://www.w3.org/1999/xlink" x="0px" y="0px"
	 viewBox="0 0 25 32" style="enable-background:new 0 0 25 32;" xml:space="preserve">
<style type="text/css">
	.st0{fill:#FFFFFF;}
</style>
<g>
	<path class="st0" d="M12.5,0.2c-6.6,0-12,5.4-12,12c0,4.3,1.3,6,7.6,14.3c1.1,1.4,2.3,3.1,3.7,4.9c0.2,0.2,0.4,0.4,0.7,0.4
		c0.3,0,0.6-0.1,0.7-0.4c1.4-1.9,2.6-3.5,3.7-4.9c6.3-8.3,7.6-10,7.6-14.3C24.5,5.6,19.1,0.2,12.5,0.2L12.5,0.2z M15.5,25.4
		c-0.9,1.2-1.9,2.5-3,3.9c-1.1-1.5-2.1-2.8-3-4c-6.1-8-7.2-9.5-7.2-13.1c0-5.6,4.6-10.2,10.2-10.2c5.6,0,10.2,4.6,10.2,10.2
		C22.7,15.9,21.6,17.3,15.5,25.4L15.5,25.4z M15.5,25.4"/>
	<path class="st0" d="M12.5,5.8C8.9,5.8,6,8.7,6,12.2s2.9,6.5,6.5,6.5s6.5-2.9,6.5-6.5S16.1,5.8,12.5,5.8L12.5,5.8z M12.5,16.9
		c-2.6,0-4.6-2.1-4.6-4.6s2.1-4.6,4.6-4.6s4.6,2.1,4.6,4.6S15.1,16.9,12.5,16.9L12.5,16.9z M12.5,16.9"/>
</g>
</svg>
